<svg width="14" height="14" viewBox="0 0 14 14" fill="none" xmlns="http://www.w3.org/2000/svg">
<path fill-rule="evenodd" clip-rule="evenodd" d="M10.9601 5.50761C10.947 2.47447 8.49369 0.0176292 5.46057 5.47815e-05C4.00905 -0.00645679 2.61519 0.567767 1.5895 1.59486C0.563816 2.62196 -0.00849442 4.0166 -2.94872e-05 5.46811C0.0131749 8.50153 2.46667 10.9586 5.50006 10.9761C6.66677 10.9812 7.80384 10.6088 8.74557 9.91161L12.5751 13.7431C12.7821 13.9603 13.0906 14.0482 13.3811 13.9728C13.6715 13.8974 13.8983 13.6704 13.9735 13.3799C14.0486 13.0894 13.9605 12.781 13.7431 12.5741L9.91006 8.73961C10.5971 7.80251 10.9652 6.66959 10.9601 5.50761ZM2.3678 2.37395C3.18819 1.55233 4.303 1.09279 5.46406 1.09757C7.89065 1.11157 9.85341 3.07701 9.86413 5.50361C9.87062 6.66467 9.41273 7.78016 8.59233 8.60177C7.77194 9.42339 6.65713 9.88293 5.49607 9.87815C3.06948 9.86415 1.10672 7.89871 1.096 5.47211C1.08952 4.31105 1.5474 3.19556 2.3678 2.37395Z" fill="#707070"/>
</svg>
