<svg width="12" height="12" viewBox="0 0 12 12" fill="none" xmlns="http://www.w3.org/2000/svg">
<path d="M3.71421 3.09374L1.04051 3.48452L0.919169 3.50819C0.0133563 3.7309 -0.322824 4.88264 0.368899 5.55519L2.30198 7.43525L1.84633 10.0913L1.83162 10.2091C1.75902 11.1416 2.75336 11.8199 3.60849 11.371L6.00008 10.1148L8.39151 11.371L8.49904 11.4213C9.36367 11.7778 10.3173 11.0434 10.1537 10.0913L9.69715 7.43525L11.6311 5.55519L11.7155 5.46486C12.3187 4.75331 11.914 3.62379 10.9595 3.48452L8.28492 3.09374L7.08903 0.676059C6.64329 -0.225353 5.35671 -0.225353 4.91097 0.676059L3.71421 3.09374Z" fill="#FFCC00"/>
</svg>
